{
    "asset" : {
        "generator" : "Khronos glTF Blender I/O v1.4.40",
        "version" : "2.0"
    },
    "scene" : 0,
    "scenes" : [
        {
            "name" : "Scene",
            "nodes" : [
                0
            ]
        }
    ],
    "nodes" : [
        {
            "mesh" : 0,
            "name" : "FU_interactable_Level3_drive",
            "rotation" : [
                0.7071068286895752,
                0,
                0,
                0.7071067094802856
            ],
            "scale" : [
                0.009999999776482582,
                0.009999999776482582,
                0.009999999776482582
            ]
        }
    ],
    "animations" : [
        {
            "channels" : [
                {
                    "sampler" : 0,
                    "target" : {
                        "node" : 0,
                        "path" : "translation"
                    }
                },
                {
                    "sampler" : 1,
                    "target" : {
                        "node" : 0,
                        "path" : "rotation"
                    }
                },
                {
                    "sampler" : 2,
                    "target" : {
                        "node" : 0,
                        "path" : "scale"
                    }
                }
            ],
            "name" : "FU_interactable_Level3_drive|Take 001|BaseLayer.002",
            "samplers" : [
                {
                    "input" : 20,
                    "interpolation" : "LINEAR",
                    "output" : 21
                },
                {
                    "input" : 20,
                    "interpolation" : "LINEAR",
                    "output" : 22
                },
                {
                    "input" : 20,
                    "interpolation" : "LINEAR",
                    "output" : 23
                }
            ]
        }
    ],
    "materials" : [
        {
            "doubleSided" : true,
            "name" : "metal.001",
            "pbrMetallicRoughness" : {
                "baseColorFactor" : [
                    0.5399895906448364,
                    0.5399895906448364,
                    0.5399895906448364,
                    1
                ],
                "roughnessFactor" : 0.5706806182861328
            }
        },
        {
            "doubleSided" : true,
            "name" : "drive_pad.001",
            "pbrMetallicRoughness" : {
                "baseColorTexture" : {
                    "index" : 0,
                    "texCoord" : 0
                },
                "metallicFactor" : 0.5,
                "roughnessFactor" : 0.7487671971321106
            }
        },
        {
            "doubleSided" : true,
            "name" : "blackPlastic.001",
            "pbrMetallicRoughness" : {
                "baseColorFactor" : [
                    0.09720202535390854,
                    0.09720202535390854,
                    0.09720202535390854,
                    1
                ],
                "metallicFactor" : 0,
                "roughnessFactor" : 0.5
            }
        },
        {
            "doubleSided" : true,
            "name" : "metal2.001",
            "pbrMetallicRoughness" : {
                "baseColorFactor" : [
                    0.5399895906448364,
                    0.5399895906448364,
                    0.5399895906448364,
                    1
                ],
                "roughnessFactor" : 0.5706806182861328
            }
        }
    ],
    "meshes" : [
        {
            "name" : "Mesh.002",
            "primitives" : [
                {
                    "attributes" : {
                        "POSITION" : 0,
                        "NORMAL" : 1,
                        "TEXCOORD_0" : 2,
                        "TEXCOORD_1" : 3
                    },
                    "indices" : 4,
                    "material" : 0
                },
                {
                    "attributes" : {
                        "POSITION" : 5,
                        "NORMAL" : 6,
                        "TEXCOORD_0" : 7,
                        "TEXCOORD_1" : 8
                    },
                    "indices" : 9,
                    "material" : 1
                },
                {
                    "attributes" : {
                        "POSITION" : 10,
                        "NORMAL" : 11,
                        "TEXCOORD_0" : 12,
                        "TEXCOORD_1" : 13
                    },
                    "indices" : 14,
                    "material" : 2
                },
                {
                    "attributes" : {
                        "POSITION" : 15,
                        "NORMAL" : 16,
                        "TEXCOORD_0" : 17,
                        "TEXCOORD_1" : 18
                    },
                    "indices" : 19,
                    "material" : 3
                }
            ]
        }
    ],
    "textures" : [
        {
            "sampler" : 0,
            "source" : 0
        }
    ],
    "images" : [
        {
            "bufferView" : 10,
            "mimeType" : "image/jpeg",
            "name" : "txt_DriveScreen_locked_square"
        }
    ],
    "accessors" : [
        {
            "bufferView" : 0,
            "componentType" : 5126,
            "count" : 476,
            "max" : [
                -59.233604431152344,
                38.61104965209961,
                127.7007827758789
            ],
            "min" : [
                -102.7540283203125,
                -5.211618423461914,
                122.32588195800781
            ],
            "type" : "VEC3"
        },
        {
            "bufferView" : 1,
            "componentType" : 5126,
            "count" : 476,
            "type" : "VEC3"
        },
        {
            "bufferView" : 2,
            "componentType" : 5126,
            "count" : 476,
            "type" : "VEC2"
        },
        {
            "bufferView" : 3,
            "componentType" : 5126,
            "count" : 476,
            "type" : "VEC2"
        },
        {
            "bufferView" : 4,
            "componentType" : 5123,
            "count" : 726,
            "type" : "SCALAR"
        },
        {
            "bufferView" : 5,
            "componentType" : 5126,
            "count" : 4,
            "max" : [
                -61.776123046875,
                36.06851577758789,
                124.0514907836914
            ],
            "min" : [
                -83.7142562866211,
                14.130382537841797,
                124.0514907836914
            ],
            "type" : "VEC3"
        },
        {
            "bufferView" : 6,
            "componentType" : 5126,
            "count" : 4,
            "type" : "VEC3"
        },
        {
            "bufferView" : 7,
            "componentType" : 5126,
            "count" : 4,
            "type" : "VEC2"
        },
        {
            "bufferView" : 8,
            "componentType" : 5126,
            "count" : 4,
            "type" : "VEC2"
        },
        {
            "bufferView" : 9,
            "componentType" : 5123,
            "count" : 6,
            "type" : "SCALAR"
        },
        {
            "bufferView" : 11,
            "componentType" : 5126,
            "count" : 977,
            "max" : [
                -55.501670837402344,
                42.41442108154297,
                130.9562530517578
            ],
            "min" : [
                -115.85899353027344,
                -33.92121124267578,
                124.2780532836914
            ],
            "type" : "VEC3"
        },
        {
            "bufferView" : 12,
            "componentType" : 5126,
            "count" : 977,
            "type" : "VEC3"
        },
        {
            "bufferView" : 13,
            "componentType" : 5126,
            "count" : 977,
            "type" : "VEC2"
        },
        {
            "bufferView" : 14,
            "componentType" : 5126,
            "count" : 977,
            "type" : "VEC2"
        },
        {
            "bufferView" : 15,
            "componentType" : 5123,
            "count" : 1665,
            "type" : "SCALAR"
        },
        {
            "bufferView" : 16,
            "componentType" : 5126,
            "count" : 607,
            "max" : [
                -111.68222045898438,
                -29.545122146606445,
                130.2034149169922
            ],
            "min" : [
                -118.4100112915039,
                -36.27292251586914,
                128.5194854736328
            ],
            "type" : "VEC3"
        },
        {
            "bufferView" : 17,
            "componentType" : 5126,
            "count" : 607,
            "type" : "VEC3"
        },
        {
            "bufferView" : 18,
            "componentType" : 5126,
            "count" : 607,
            "type" : "VEC2"
        },
        {
            "bufferView" : 19,
            "componentType" : 5126,
            "count" : 607,
            "type" : "VEC2"
        },
        {
            "bufferView" : 20,
            "componentType" : 5123,
            "count" : 1059,
            "type" : "SCALAR"
        },
        {
            "bufferView" : 21,
            "componentType" : 5126,
            "count" : 41,
            "max" : [
                1.7083333333333333
            ],
            "min" : [
                0.041666666666666664
            ],
            "type" : "SCALAR"
        },
        {
            "bufferView" : 22,
            "componentType" : 5126,
            "count" : 41,
            "type" : "VEC3"
        },
        {
            "bufferView" : 23,
            "componentType" : 5126,
            "count" : 41,
            "type" : "VEC4"
        },
        {
            "bufferView" : 24,
            "componentType" : 5126,
            "count" : 41,
            "type" : "VEC3"
        }
    ],
    "bufferViews" : [
        {
            "buffer" : 0,
            "byteLength" : 5712,
            "byteOffset" : 0
        },
        {
            "buffer" : 0,
            "byteLength" : 5712,
            "byteOffset" : 5712
        },
        {
            "buffer" : 0,
            "byteLength" : 3808,
            "byteOffset" : 11424
        },
        {
            "buffer" : 0,
            "byteLength" : 3808,
            "byteOffset" : 15232
        },
        {
            "buffer" : 0,
            "byteLength" : 1452,
            "byteOffset" : 19040
        },
        {
            "buffer" : 0,
            "byteLength" : 48,
            "byteOffset" : 20492
        },
        {
            "buffer" : 0,
            "byteLength" : 48,
            "byteOffset" : 20540
        },
        {
            "buffer" : 0,
            "byteLength" : 32,
            "byteOffset" : 20588
        },
        {
            "buffer" : 0,
            "byteLength" : 32,
            "byteOffset" : 20620
        },
        {
            "buffer" : 0,
            "byteLength" : 12,
            "byteOffset" : 20652
        },
        {
            "buffer" : 0,
            "byteLength" : 46716,
            "byteOffset" : 20664
        },
        {
            "buffer" : 0,
            "byteLength" : 11724,
            "byteOffset" : 67380
        },
        {
            "buffer" : 0,
            "byteLength" : 11724,
            "byteOffset" : 79104
        },
        {
            "buffer" : 0,
            "byteLength" : 7816,
            "byteOffset" : 90828
        },
        {
            "buffer" : 0,
            "byteLength" : 7816,
            "byteOffset" : 98644
        },
        {
            "buffer" : 0,
            "byteLength" : 3330,
            "byteOffset" : 106460
        },
        {
            "buffer" : 0,
            "byteLength" : 7284,
            "byteOffset" : 109792
        },
        {
            "buffer" : 0,
            "byteLength" : 7284,
            "byteOffset" : 117076
        },
        {
            "buffer" : 0,
            "byteLength" : 4856,
            "byteOffset" : 124360
        },
        {
            "buffer" : 0,
            "byteLength" : 4856,
            "byteOffset" : 129216
        },
        {
            "buffer" : 0,
            "byteLength" : 2118,
            "byteOffset" : 134072
        },
        {
            "buffer" : 0,
            "byteLength" : 164,
            "byteOffset" : 136192
        },
        {
            "buffer" : 0,
            "byteLength" : 492,
            "byteOffset" : 136356
        },
        {
            "buffer" : 0,
            "byteLength" : 656,
            "byteOffset" : 136848
        },
        {
            "buffer" : 0,
            "byteLength" : 492,
            "byteOffset" : 137504
        }
    ],
    "samplers" : [
        {
            "magFilter" : 9729,
            "minFilter" : 9986
        }
    ],
    "buffers" : [
        {
            "byteLength" : 137996,
            "uri" : "data:application/octet-stream;base64,"
        }
    ]
}
