{"accessors" : [{"bufferView" : 0, "byteOffset" : 0, "componentType" : 5123, "count" : 4248, "type" : "SCALAR", "max" : [3546], "min" : [0]}, {"bufferView" : 1, "byteOffset" : 0, "componentType" : 5126, "count" : 3547, "type" : "VEC3", "max" : [14.22128677368164, 220.06288146972656, -7.310973644256592], "min" : [-68.2013168334961, 48.97950744628906, -9.64887809753418], "name" : "POSITION"}, {"bufferView" : 1, "byteOffset" : 12, "componentType" : 5126, "count" : 3547, "type" : "VEC3", "max" : [0.9900496602058411, 0.9790086150169373, 1.0000044107437134], "min" : [-0.9900499582290649, -0.9790089726448059, -1.0000044107437134], "name" : "NORMAL"}, {"bufferView" : 1, "byteOffset" : 24, "componentType" : 5126, "count" : 3547, "type" : "VEC2", "max" : [0.875, 1], "min" : [0.125, 0], "name" : "TEXCOORD_0"}, {"bufferView" : 0, "byteOffset" : 8496, "componentType" : 5123, "count" : 36, "type" : "SCALAR", "max" : [29], "min" : [0]}, {"bufferView" : 2, "byteOffset" : 0, "componentType" : 5126, "count" : 30, "type" : "VEC3", "max" : [2.9488754272460938, 188.5161590576172, -7.638664722442627], "min" : [0.8441123962402344, 184.4899139404297, -8.194117546081543], "name" : "POSITION"}, {"bufferView" : 2, "byteOffset" : 12, "componentType" : 5126, "count" : 30, "type" : "VEC3", "max" : [0.9790033102035522, 0.9790069460868835, 1.0000044107437134], "min" : [-0.9790032505989075, -0.9790049195289612, -1.0000044107437134], "name" : "NORMAL"}, {"bufferView" : 2, "byteOffset" : 24, "componentType" : 5126, "count" : 30, "type" : "VEC2", "max" : [0.875, 1], "min" : [0.125, 0], "name" : "TEXCOORD_0"}, {"bufferView" : 0, "byteOffset" : 8568, "componentType" : 5123, "count" : 531, "type" : "SCALAR", "max" : [433], "min" : [0]}, {"bufferView" : 3, "byteOffset" : 0, "componentType" : 5126, "count" : 434, "type" : "VEC3", "max" : [22.790565490722656, 228.09129333496094, -2.4058473110198975], "min" : [-78.7576904296875, 43.429954528808594, -8.058024406433105], "name" : "POSITION"}, {"bufferView" : 3, "byteOffset" : 12, "componentType" : 5126, "count" : 434, "type" : "VEC3", "max" : [0.9877241849899292, 1.0000044107437134, 1.0000044107437134], "min" : [-0.9870592355728149, -0.979003369808197, -1.0000044107437134], "name" : "NORMAL"}, {"bufferView" : 3, "byteOffset" : 24, "componentType" : 5126, "count" : 434, "type" : "VEC2", "max" : [0.875, 1], "min" : [0.125, 0], "name" : "TEXCOORD_0"}, {"bufferView" : 0, "byteOffset" : 9632, "componentType" : 5123, "count" : 1044, "type" : "SCALAR", "max" : [855], "min" : [0]}, {"bufferView" : 4, "byteOffset" : 0, "componentType" : 5126, "count" : 856, "type" : "VEC3", "max" : [-7.0028839111328125, 329.4413146972656, -1.3901879787445068], "min" : [-45.035438537597656, 287.50164794921875, -14.386784553527832], "name" : "POSITION"}, {"bufferView" : 4, "byteOffset" : 12, "componentType" : 5126, "count" : 856, "type" : "VEC3", "max" : [0.9813036918640137, 0.9930723309516907, 1.0000033378601074], "min" : [-0.9973200559616089, -0.9794606566429138, -0.9979116916656494], "name" : "NORMAL"}, {"bufferView" : 4, "byteOffset" : 24, "componentType" : 5126, "count" : 856, "type" : "VEC2", "max" : [1, 1], "min" : [0.125, 0], "name" : "TEXCOORD_0"}, {"bufferView" : 0, "byteOffset" : 11720, "componentType" : 5123, "count" : 36, "type" : "SCALAR", "max" : [29], "min" : [0]}, {"bufferView" : 5, "byteOffset" : 0, "componentType" : 5126, "count" : 30, "type" : "VEC3", "max" : [-16.554203033447266, 298.7640380859375, -9.553257942199707], "min" : [-18.54607391357422, 296.63275146484375, -11.161031723022461], "name" : "POSITION"}, {"bufferView" : 5, "byteOffset" : 12, "componentType" : 5126, "count" : 30, "type" : "VEC3", "max" : [0.7795661687850952, 0.6793137192726135, 0.8263693451881409], "min" : [-0.7795444130897522, -0.6793122291564941, -0.8263728618621826], "name" : "NORMAL"}, {"bufferView" : 5, "byteOffset" : 24, "componentType" : 5126, "count" : 30, "type" : "VEC2", "max" : [0.875, 1], "min" : [0.125, 0], "name" : "TEXCOORD_0"}, {"bufferView" : 0, "byteOffset" : 11792, "componentType" : 5123, "count" : 6, "type" : "SCALAR", "max" : [4], "min" : [0]}, {"bufferView" : 6, "byteOffset" : 0, "componentType" : 5126, "count" : 5, "type" : "VEC3", "max" : [152.74130249023438, 233.9044647216797, -32.873680114746094], "min" : [117.08602142333984, 25.279767990112305, -172.56246948242188], "name" : "POSITION"}, {"bufferView" : 6, "byteOffset" : 12, "componentType" : 5126, "count" : 5, "type" : "VEC3", "max" : [-0.9857121706008911, 0.16846446692943573, 2.5538515302514497E-08], "min" : [-0.9857122302055359, 0.16846442222595215, -0], "name" : "NORMAL"}, {"bufferView" : 6, "byteOffset" : 24, "componentType" : 5126, "count" : 5, "type" : "VEC2", "max" : [1.0002403259277344, 0.9954018592834473], "min" : [0.002802819013595581, 0.0010536909103393555], "name" : "TEXCOORD_0"}, {"bufferView" : 0, "byteOffset" : 11804, "componentType" : 5123, "count" : 1134, "type" : "SCALAR", "max" : [908], "min" : [0]}, {"bufferView" : 7, "byteOffset" : 0, "componentType" : 5126, "count" : 909, "type" : "VEC3", "max" : [180.496337890625, 239.43699645996094, -1.4435665607452393], "min" : [97.92301940917969, 18.779296875, -176.3725128173828], "name" : "POSITION"}, {"bufferView" : 7, "byteOffset" : 12, "componentType" : 5126, "count" : 909, "type" : "VEC3", "max" : [0.9857122302055359, 0.9998387694358826, 1.0000044107437134], "min" : [-0.9857123494148254, -0.9998393654823303, -1.0000044107437134], "name" : "NORMAL"}, {"bufferView" : 7, "byteOffset" : 24, "componentType" : 5126, "count" : 909, "type" : "VEC2", "max" : [1, 1], "min" : [0, 0], "name" : "TEXCOORD_0"}], "asset" : {"generator" : "Aspose.3D 22.1", "version" : "2.0"}, "buffers" : [{"uri" : "data:application/octet-stream;base64,", "byteLength" : 239224}], "bufferViews" : [{"buffer" : 0, "byteOffset" : 0, "byteLength" : 14072, "target" : 34963}, {"buffer" : 0, "byteOffset" : 14076, "byteLength" : 135936, "byteStride" : 32, "target" : 34962}, {"buffer" : 0, "byteOffset" : 150016, "byteLength" : 1152, "byteStride" : 32, "target" : 34962}, {"buffer" : 0, "byteOffset" : 151172, "byteLength" : 16992, "byteStride" : 32, "target" : 34962}, {"buffer" : 0, "byteOffset" : 168168, "byteLength" : 33408, "byteStride" : 32, "target" : 34962}, {"buffer" : 0, "byteOffset" : 201580, "byteLength" : 1152, "byteStride" : 32, "target" : 34962}, {"buffer" : 0, "byteOffset" : 202736, "byteLength" : 192, "byteStride" : 32, "target" : 34962}, {"buffer" : 0, "byteOffset" : 202932, "byteLength" : 36288, "byteStride" : 32, "target" : 34962}], "images" : [{"uri" : "data:image/jpeg;base64,"}], "materials" : [{"name" : "blinn", "pbrMetallicRoughness" : {"baseColorFactor" : [0.07500000298023224, 0.07500000298023224, 0.07500000298023224, 1], "metallicFactor" : 0.5, "roughnessFactor" : 0.49924230575561523}, "emissiveFactor" : [0, 0, 0], "alphaMode" : "OPAQUE", "doubleSided" : true}, {"name" : "lambert6", "pbrMetallicRoughness" : {"baseColorFactor" : [0.13311101496219635, 0.75, 0.06749998033046722, 1], "metallicFactor" : 1, "roughnessFactor" : 0.5527864098548889}, "emissiveFactor" : [0.09613335132598877, 1, 0], "alphaMode" : "OPAQUE", "doubleSided" : true}, {"name" : "phongE", "pbrMetallicRoughness" : {"baseColorFactor" : [0.03200000151991844, 0.03200000151991844, 0.03200000151991844, 1], "metallicFactor" : 0.5, "roughnessFactor" : 0.5527864098548889}, "emissiveFactor" : [0, 0, 0], "alphaMode" : "OPAQUE", "doubleSided" : true}, {"name" : "blinn1", "pbrMetallicRoughness" : {"baseColorFactor" : [0.07500000298023224, 0.07500000298023224, 0.07500000298023224, 1], "metallicFactor" : 0.5, "roughnessFactor" : 0.49924230575561523}, "emissiveFactor" : [0, 0, 0], "alphaMode" : "OPAQUE", "doubleSided" : true}, {"name" : "lambert7", "pbrMetallicRoughness" : {"baseColorFactor" : [0.05787227675318718, 0.6019999980926514, 0, 1], "metallicFactor" : 1, "roughnessFactor" : 0.5527864098548889}, "emissiveFactor" : [0.05537280812859535, 0.5759999752044678, 0], "alphaMode" : "OPAQUE", "doubleSided" : true}, {"name" : "screenA", "pbrMetallicRoughness" : {"baseColorFactor" : [1, 1, 1, 1], "baseColorTexture" : {"index" : 0, "texCoord" : 0}, "metallicFactor" : 0.5, "roughnessFactor" : 0.5527864098548889}, "emissiveFactor" : [0, 0, 0], "alphaMode" : "OPAQUE", "doubleSided" : true}, {"name" : "phongE10", "pbrMetallicRoughness" : {"baseColorFactor" : [0.02199999988079071, 0.02199999988079071, 0.02199999988079071, 1], "metallicFactor" : 0.5, "roughnessFactor" : 0.5527864098548889}, "emissiveFactor" : [0, 0, 0], "alphaMode" : "OPAQUE", "doubleSided" : true}], "meshes" : [{"primitives" : [{"attributes" : {"POSITION" : 1, "NORMAL" : 2, "TEXCOORD_0" : 3}, "indices" : 0, "material" : 0, "mode" : 4}, {"attributes" : {"POSITION" : 5, "NORMAL" : 6, "TEXCOORD_0" : 7}, "indices" : 4, "material" : 1, "mode" : 4}, {"attributes" : {"POSITION" : 9, "NORMAL" : 10, "TEXCOORD_0" : 11}, "indices" : 8, "material" : 2, "mode" : 4}, {"attributes" : {"POSITION" : 13, "NORMAL" : 14, "TEXCOORD_0" : 15}, "indices" : 12, "material" : 3, "mode" : 4}, {"attributes" : {"POSITION" : 17, "NORMAL" : 18, "TEXCOORD_0" : 19}, "indices" : 16, "material" : 4, "mode" : 4}, {"attributes" : {"POSITION" : 21, "NORMAL" : 22, "TEXCOORD_0" : 23}, "indices" : 20, "material" : 5, "mode" : 4}, {"attributes" : {"POSITION" : 25, "NORMAL" : 26, "TEXCOORD_0" : 27}, "indices" : 24, "material" : 6, "mode" : 4}]}], "nodes" : [{"matrix" : [0.009999999776482582, 0, 0, 0, 0, -1.3435885348189617E-09, 0.009999999434197101, 0, 0, -0.009999999434197101, -1.3435885348189617E-09, 0, 0, 0, 0, 1], "mesh" : 0, "name" : "FU_interactable_Level1_PC"}], "samplers" : [{"magFilter" : 9729, "minFilter" : 9986, "wrapS" : 10497, "wrapT" : 10497}], "scene" : 0, "scenes" : [{"nodes" : [0]}], "textures" : [{"sampler" : 0, "source" : 0}]}