<!-- Copyright 2021 Polycular e.U. -->
<svg width="100%" height="100%" viewBox="0 0 480 96" version="1.1" xmlns="http://www.w3.org/2000/svg" xmlns:xlink="http://www.w3.org/1999/xlink" xml:space="preserve" xmlns:serif="http://www.serif.com/" style="fill-rule:evenodd;clip-rule:evenodd;stroke-linejoin:round;stroke-miterlimit:2;"><g id="cyberXscape"><path d="M289.676,61.782l-0.079,-2.391c-0.005,-0.173 0.067,-0.34 0.218,-0.502c0.151,-0.162 0.313,-0.246 0.486,-0.252l2.494,-0.093c0.208,-0.007 0.384,0.064 0.527,0.215c0.144,0.151 0.219,0.313 0.224,0.486l0.079,2.391c0.033,1.005 0.417,1.849 1.15,2.533c0.734,0.684 1.603,1.007 2.607,0.97l11.588,-0.429c1.005,-0.038 1.851,-0.425 2.538,-1.161c0.686,-0.737 1.013,-1.608 0.98,-2.612l-0.152,-4.626c-0.033,-1.005 -0.416,-1.849 -1.15,-2.533c-0.733,-0.684 -1.603,-1.007 -2.607,-0.97l-11.588,0.429c-1.04,0.039 -2.025,-0.124 -2.956,-0.488c-0.931,-0.365 -1.754,-0.872 -2.469,-1.522c-0.715,-0.65 -1.287,-1.435 -1.717,-2.356c-0.429,-0.921 -0.66,-1.901 -0.695,-2.94l-0.152,-4.626c-0.034,-1.039 0.133,-2.026 0.501,-2.958c0.368,-0.933 0.887,-1.759 1.557,-2.478c0.671,-0.719 1.458,-1.294 2.363,-1.727c0.905,-0.432 1.877,-0.668 2.916,-0.706l11.588,-0.43c1.04,-0.038 2.025,0.125 2.956,0.489c0.931,0.365 1.755,0.881 2.47,1.548c0.716,0.667 1.288,1.452 1.717,2.356c0.428,0.903 0.66,1.875 0.694,2.914l0.078,2.391c0.016,0.485 -0.218,0.737 -0.703,0.755l-2.494,0.092c-0.485,0.018 -0.736,-0.216 -0.752,-0.701l-0.079,-2.39c-0.033,-1.005 -0.416,-1.85 -1.149,-2.534c-0.734,-0.684 -1.603,-1.007 -2.608,-0.97l-11.588,0.43c-1.004,0.037 -1.85,0.424 -2.537,1.161c-0.687,0.736 -1.014,1.607 -0.981,2.612l0.153,4.625c0.033,1.005 0.416,1.849 1.15,2.533c0.733,0.684 1.602,1.008 2.607,0.97l11.588,-0.429c1.039,-0.039 2.024,0.124 2.956,0.489c0.931,0.364 1.754,0.88 2.47,1.547c0.715,0.668 1.287,1.453 1.716,2.356c0.429,0.904 0.66,1.875 0.694,2.915l0.152,4.625c0.035,1.04 -0.132,2.035 -0.5,2.985c-0.367,0.95 -0.886,1.776 -1.557,2.477c-0.671,0.702 -1.458,1.268 -2.363,1.701c-0.905,0.432 -1.877,0.668 -2.917,0.706l-11.588,0.43c-1.039,0.038 -2.024,-0.124 -2.955,-0.489c-0.931,-0.364 -1.755,-0.872 -2.47,-1.521c-0.715,-0.65 -1.287,-1.436 -1.716,-2.357c-0.429,-0.92 -0.661,-1.9 -0.695,-2.94Z" style="fill:#1d83d4;fill-rule:nonzero;"/><path d="M352.062,41.362c0.016,0.485 -0.219,0.736 -0.704,0.754l-2.494,0.093c-0.485,0.018 -0.736,-0.216 -0.752,-0.701l-0.08,-2.443c-0.068,-1.003 -0.459,-1.839 -1.175,-2.506c-0.716,-0.667 -1.576,-0.982 -2.581,-0.945l-11.588,0.429c-1.004,0.038 -1.85,0.425 -2.537,1.161c-0.687,0.737 -1.014,1.607 -0.98,2.612l0.673,20.477c0.033,1.005 0.417,1.85 1.15,2.534c0.734,0.683 1.603,1.007 2.607,0.97l11.589,-0.43c1.004,-0.037 1.842,-0.406 2.512,-1.108c0.671,-0.701 1.007,-1.555 1.009,-2.561l-0.082,-2.494c-0.006,-0.174 0.058,-0.341 0.191,-0.502c0.134,-0.161 0.304,-0.245 0.512,-0.253l2.495,-0.093c0.207,-0.007 0.383,0.064 0.527,0.215c0.144,0.151 0.218,0.313 0.224,0.486l0.082,2.495c0.034,1.039 -0.142,2.017 -0.528,2.933c-0.386,0.917 -0.906,1.725 -1.559,2.426c-0.653,0.7 -1.432,1.267 -2.337,1.7c-0.905,0.432 -1.877,0.668 -2.917,0.706l-11.588,0.43c-1.039,0.038 -2.024,-0.125 -2.955,-0.489c-0.931,-0.365 -1.746,-0.872 -2.444,-1.523c-0.697,-0.65 -1.261,-1.436 -1.69,-2.357c-0.429,-0.921 -0.661,-1.901 -0.695,-2.94l-0.674,-20.477c-0.034,-1.04 0.133,-2.026 0.501,-2.959c0.368,-0.933 0.879,-1.758 1.532,-2.476c0.652,-0.718 1.431,-1.294 2.336,-1.726c0.905,-0.432 1.877,-0.668 2.916,-0.706l11.588,-0.43c1.04,-0.039 2.025,0.124 2.956,0.489c0.931,0.364 1.746,0.872 2.443,1.522c0.698,0.651 1.27,1.428 1.716,2.33c0.446,0.903 0.686,1.874 0.72,2.914l0.081,2.443Z" style="fill:#1d83d4;fill-rule:nonzero;"/><path d="M379.43,30.356c0.208,-0.007 0.41,0.054 0.605,0.186c0.195,0.132 0.33,0.283 0.405,0.453l7.818,17.819c0.075,0.171 0.143,0.394 0.204,0.669c0.061,0.275 0.095,0.517 0.102,0.725l0.485,14.76c0.016,0.485 -0.218,0.736 -0.703,0.754l-2.442,0.091c-0.485,0.018 -0.736,-0.216 -0.752,-0.701l-0.316,-9.615l-18.863,0.699l0.316,9.615c0.016,0.485 -0.218,0.737 -0.703,0.755l-2.495,0.092c-0.485,0.018 -0.735,-0.215 -0.751,-0.7l-0.486,-14.76c-0.007,-0.208 0.011,-0.452 0.054,-0.731c0.043,-0.279 0.096,-0.507 0.16,-0.682l6.628,-18.354c0.063,-0.176 0.197,-0.337 0.4,-0.484c0.203,-0.146 0.392,-0.222 0.565,-0.229l9.769,-0.362Zm5.278,21.243l-0.041,-1.247l-7.03,-15.975l-5.871,0.218l-5.963,16.456l0.042,1.248l18.863,-0.7Z" style="fill:#1d83d4;fill-rule:nonzero;"/><path d="M398.559,64.615l-1.125,-34.198c-0.007,-0.207 0.065,-0.384 0.217,-0.528c0.151,-0.144 0.313,-0.22 0.486,-0.226l18.448,-0.684c1.039,-0.038 2.024,0.125 2.955,0.489c0.931,0.364 1.755,0.88 2.471,1.548c0.715,0.667 1.287,1.452 1.716,2.356c0.429,0.903 0.66,1.874 0.694,2.914l0.152,4.625c0.035,1.04 -0.132,2.035 -0.5,2.985c-0.367,0.95 -0.887,1.776 -1.557,2.477c-0.671,0.702 -1.459,1.269 -2.363,1.701c-0.905,0.433 -1.878,0.668 -2.917,0.707l-15.225,0.564l0.497,15.124c0.016,0.485 -0.218,0.736 -0.703,0.754l-2.495,0.093c-0.173,0.006 -0.34,-0.057 -0.5,-0.19c-0.161,-0.132 -0.244,-0.303 -0.251,-0.511Zm3.322,-19.22l15.225,-0.564c1.005,-0.038 1.851,-0.424 2.537,-1.161c0.687,-0.737 1.014,-1.607 0.981,-2.612l-0.152,-4.626c-0.033,-1.004 -0.417,-1.849 -1.15,-2.533c-0.734,-0.684 -1.603,-1.007 -2.607,-0.97l-15.226,0.564l0.392,11.902Z" style="fill:#1d83d4;fill-rule:nonzero;"/><path d="M435.61,63.242l-1.126,-34.198c-0.016,-0.485 0.219,-0.736 0.704,-0.754l24.215,-0.898c0.485,-0.018 0.736,0.216 0.752,0.701l0.082,2.494c0.016,0.486 -0.219,0.737 -0.704,0.755l-21.045,0.78l0.391,11.902l18.24,-0.676c0.173,-0.007 0.34,0.065 0.501,0.215c0.161,0.15 0.245,0.312 0.25,0.485l0.082,2.495c0.007,0.208 -0.065,0.384 -0.216,0.528c-0.152,0.145 -0.314,0.22 -0.487,0.227l-18.24,0.676l0.392,11.901l21.045,-0.78c0.208,-0.007 0.384,0.064 0.528,0.215c0.143,0.151 0.218,0.313 0.224,0.486l0.082,2.495c0.016,0.485 -0.219,0.736 -0.704,0.754l-24.215,0.898c-0.485,0.018 -0.736,-0.216 -0.751,-0.701Z" style="fill:#1d83d4;fill-rule:nonzero;"/><path d="M263.607,34.756c-0,0.516 -0.143,1.075 -0.43,1.677c-0.287,0.602 -0.631,1.075 -1.032,1.419l-12.9,10.75l12.9,10.836c0.401,0.287 0.745,0.731 1.032,1.333c0.287,0.602 0.43,1.161 0.43,1.677l-0,13.846c-0,0.459 -0.186,0.874 -0.559,1.247c-0.373,0.373 -0.817,0.559 -1.333,0.559l-8.084,0c-0.516,0 -0.96,-0.186 -1.333,-0.559c-0.373,-0.373 -0.559,-0.788 -0.559,-1.247l0,-8.256c0,-0.516 -0.129,-1.075 -0.387,-1.677c-0.258,-0.602 -0.588,-1.075 -0.989,-1.419l-10.406,-8.6l-10.32,8.6c-0.401,0.344 -0.745,0.817 -1.032,1.419c-0.287,0.602 -0.43,1.161 -0.43,1.677l0,8.256c0,0.459 -0.172,0.874 -0.516,1.247c-0.344,0.373 -0.774,0.559 -1.29,0.559l-8.084,0c-0.516,0 -0.96,-0.186 -1.333,-0.559c-0.373,-0.373 -0.559,-0.788 -0.559,-1.247l0,-13.846c0,-0.516 0.129,-1.075 0.387,-1.677c0.258,-0.602 0.616,-1.046 1.075,-1.333l12.9,-10.836l-12.9,-10.75c-0.459,-0.344 -0.817,-0.817 -1.075,-1.419c-0.258,-0.602 -0.387,-1.161 -0.387,-1.677l0,-13.76c0,-0.516 0.186,-0.96 0.559,-1.333c0.373,-0.373 0.817,-0.559 1.333,-0.559l8.084,0c0.516,0 0.946,0.186 1.29,0.559c0.344,0.373 0.516,0.817 0.516,1.333l0,8.256c0,0.516 0.143,1.075 0.43,1.677c0.287,0.602 0.631,1.075 1.032,1.419l10.32,8.6l10.406,-8.6c0.401,-0.344 0.731,-0.817 0.989,-1.419c0.258,-0.602 0.387,-1.161 0.387,-1.677l0,-8.256c0,-0.516 0.186,-0.96 0.559,-1.333c0.373,-0.373 0.817,-0.559 1.333,-0.559l8.084,0c0.516,0 0.96,0.186 1.333,0.559c0.373,0.373 0.559,0.817 0.559,1.333l-0,13.76Z" style="fill:#1d83d4;fill-rule:nonzero;"/><path d="M43.218,38.33c-0.016,0.485 -0.267,0.719 -0.752,0.701l-2.494,-0.093c-0.485,-0.018 -0.72,-0.269 -0.704,-0.754l0.081,-2.443c-0.002,-1.006 -0.338,-1.869 -1.008,-2.587c-0.67,-0.719 -1.507,-1.097 -2.512,-1.134l-11.588,-0.43c-1.005,-0.037 -1.874,0.287 -2.607,0.971c-0.734,0.684 -1.117,1.528 -1.15,2.533l-0.674,20.477c-0.033,1.005 0.294,1.875 0.981,2.612c0.687,0.737 1.532,1.123 2.537,1.161l11.588,0.429c1.005,0.037 1.865,-0.269 2.58,-0.919c0.715,-0.65 1.106,-1.477 1.174,-2.48l0.082,-2.495c0.006,-0.173 0.08,-0.335 0.224,-0.486c0.144,-0.151 0.319,-0.222 0.527,-0.214l2.495,0.092c0.207,0.008 0.378,0.092 0.512,0.253c0.133,0.161 0.197,0.328 0.191,0.502l-0.082,2.494c-0.034,1.04 -0.274,2.002 -0.719,2.888c-0.446,0.885 -1.017,1.653 -1.715,2.304c-0.698,0.65 -1.512,1.158 -2.443,1.522c-0.931,0.365 -1.917,0.528 -2.956,0.489l-11.588,-0.429c-1.039,-0.039 -2.011,-0.274 -2.916,-0.707c-0.905,-0.432 -1.684,-0.999 -2.338,-1.7c-0.653,-0.7 -1.163,-1.526 -1.531,-2.476c-0.368,-0.95 -0.534,-1.945 -0.5,-2.985l0.674,-20.477c0.034,-1.039 0.265,-2.011 0.694,-2.914c0.428,-0.903 0.992,-1.689 1.69,-2.357c0.699,-0.668 1.513,-1.184 2.444,-1.549c0.932,-0.364 1.917,-0.527 2.956,-0.488l11.588,0.429c1.039,0.039 2.012,0.274 2.916,0.707c0.905,0.432 1.684,0.999 2.338,1.699c0.653,0.701 1.173,1.518 1.558,2.452c0.386,0.933 0.561,1.92 0.527,2.959l-0.08,2.443Z" style="fill:#1d83d4;fill-rule:nonzero;"/><path d="M53.188,38.908c-0.133,-0.179 -0.248,-0.382 -0.344,-0.612c-0.097,-0.229 -0.142,-0.447 -0.135,-0.655l0.27,-8.212c0.006,-0.173 0.09,-0.335 0.251,-0.485c0.161,-0.15 0.328,-0.222 0.501,-0.215l2.494,0.092c0.208,0.008 0.379,0.092 0.512,0.253c0.134,0.161 0.197,0.329 0.192,0.502l-0.219,6.652c-0.006,0.174 0.039,0.383 0.135,0.63c0.096,0.246 0.211,0.458 0.343,0.637l8.651,9.062l9.173,-8.402c0.179,-0.166 0.316,-0.369 0.411,-0.609c0.094,-0.239 0.144,-0.445 0.15,-0.619l0.219,-6.652c0.006,-0.173 0.08,-0.335 0.224,-0.486c0.144,-0.151 0.319,-0.222 0.527,-0.215l2.495,0.093c0.207,0.007 0.378,0.092 0.511,0.253c0.134,0.161 0.198,0.328 0.192,0.501l-0.27,8.212c-0.007,0.208 -0.066,0.422 -0.177,0.644c-0.112,0.221 -0.239,0.416 -0.384,0.584l-11.216,10.408l-0.458,13.928c-0.007,0.208 -0.091,0.379 -0.251,0.511c-0.161,0.133 -0.327,0.196 -0.501,0.19l-2.494,-0.092c-0.485,-0.018 -0.719,-0.27 -0.704,-0.755l0.459,-13.929l-10.557,-11.214Z" style="fill:#1d83d4;fill-rule:nonzero;"/><path d="M88.021,64.968l1.126,-34.198c0.006,-0.208 0.09,-0.378 0.251,-0.511c0.16,-0.133 0.327,-0.196 0.5,-0.19l18.447,0.684c1.04,0.039 2.012,0.274 2.917,0.707c0.905,0.432 1.692,1.008 2.362,1.726c0.67,0.719 1.189,1.545 1.558,2.478c0.368,0.933 0.535,1.919 0.501,2.958l-0.153,4.626c-0.057,1.732 -0.644,3.254 -1.763,4.566l-0.76,0.96l0.695,1.014c1.029,1.426 1.515,2.988 1.459,4.686l-0.152,4.625c-0.034,1.04 -0.266,2.02 -0.695,2.941c-0.429,0.92 -1.002,1.706 -1.717,2.356c-0.715,0.65 -1.538,1.157 -2.469,1.521c-0.931,0.365 -1.916,0.528 -2.956,0.489l-18.447,-0.684c-0.173,-0.006 -0.335,-0.082 -0.487,-0.226c-0.151,-0.144 -0.223,-0.32 -0.217,-0.528Zm4.056,-3.076l15.225,0.564c1.005,0.037 1.874,-0.286 2.608,-0.97c0.733,-0.684 1.116,-1.528 1.15,-2.533l0.152,-4.626c0.033,-1.004 -0.294,-1.875 -0.981,-2.612c-0.687,-0.736 -1.532,-1.123 -2.537,-1.161l-15.226,-0.564l-0.391,11.902Zm0.521,-15.852l15.226,0.565c1.005,0.037 1.874,-0.287 2.607,-0.971c0.734,-0.683 1.117,-1.528 1.15,-2.533l0.152,-4.625c0.033,-1.005 -0.294,-1.876 -0.98,-2.612c-0.687,-0.737 -1.533,-1.124 -2.538,-1.161l-15.225,-0.564l-0.392,11.901Z" style="fill:#1d83d4;fill-rule:nonzero;"/><path d="M125.02,66.339l1.125,-34.198c0.016,-0.485 0.267,-0.718 0.752,-0.7l24.215,0.897c0.485,0.018 0.72,0.27 0.704,0.755l-0.082,2.494c-0.016,0.485 -0.267,0.719 -0.752,0.701l-21.045,-0.78l-0.392,11.902l18.239,0.676c0.174,0.006 0.336,0.09 0.486,0.252c0.151,0.162 0.224,0.329 0.218,0.502l-0.082,2.495c-0.007,0.208 -0.091,0.378 -0.251,0.511c-0.16,0.133 -0.327,0.196 -0.501,0.19l-18.239,-0.676l-0.392,11.901l21.046,0.78c0.208,0.008 0.378,0.092 0.512,0.253c0.133,0.161 0.197,0.329 0.192,0.502l-0.083,2.494c-0.016,0.486 -0.266,0.719 -0.751,0.701l-24.215,-0.897c-0.485,-0.018 -0.72,-0.27 -0.704,-0.755Z" style="fill:#1d83d4;fill-rule:nonzero;"/><path d="M182.179,68.51l-6.256,-15.427l-11.12,-0.412l-0.498,15.124c-0.016,0.485 -0.266,0.719 -0.751,0.701l-2.443,-0.091c-0.485,-0.018 -0.719,-0.269 -0.703,-0.754l1.125,-34.198c0.016,-0.485 0.266,-0.719 0.751,-0.701l18.396,0.682c1.039,0.039 2.011,0.274 2.916,0.707c0.905,0.432 1.692,1.008 2.363,1.726c0.67,0.719 1.189,1.545 1.557,2.478c0.368,0.933 0.535,1.919 0.501,2.958l-0.152,4.626c-0.056,1.697 -0.617,3.194 -1.683,4.49c-1.066,1.297 -2.421,2.157 -4.065,2.582l-1.784,0.454l6.159,15.214c0.098,0.178 0.102,0.334 0.011,0.469c-0.091,0.136 -0.241,0.199 -0.449,0.192l-2.858,-0.106c-0.208,-0.008 -0.413,-0.085 -0.617,-0.231c-0.203,-0.147 -0.336,-0.308 -0.4,-0.483Zm-17.246,-19.789l15.225,0.565c1.005,0.037 1.874,-0.287 2.607,-0.971c0.734,-0.683 1.117,-1.528 1.15,-2.533l0.153,-4.625c0.033,-1.005 -0.294,-1.876 -0.981,-2.612c-0.687,-0.737 -1.533,-1.124 -2.537,-1.161l-15.226,-0.564l-0.391,11.901Z" style="fill:#1d83d4;fill-rule:nonzero;"/></g></svg>
