<!-- Copyright 2021 Polycular e.U. -->
<svg width="100%" height="100%" viewBox="0 0 530 160" version="1.1" xmlns="http://www.w3.org/2000/svg" xmlns:xlink="http://www.w3.org/1999/xlink" xml:space="preserve" xmlns:serif="http://www.serif.com/" style="fill-rule:evenodd;clip-rule:evenodd;stroke-linejoin:round;stroke-miterlimit:2;"><g><path d="M509.223,79.009l19.936,34.636l-65.736,27.977l45.8,-62.613Z" style="fill:#8c7aa1;fill-rule:nonzero;"/><path d="M471.661,22.061l56.971,39.022l-65.209,80.539l-2.898,-63.376l11.136,-56.185Z" style="fill:#7f658a;fill-rule:nonzero;"/><path d="M374.198,9.711l8.655,61.57l16.522,66.913l52.602,0l-20.323,-100.627l-57.456,-27.856Z" style="fill:#8c7aa1;fill-rule:nonzero;"/><path d="M341.851,97.941l27.082,-45.801l5.322,-42.429l-76.911,-9.699l15.061,45.252l29.446,52.677Z" style="fill:#5c4f75;fill-rule:nonzero;"/><path d="M341.798,97.941l-27.912,-45.876l-28.263,-37.113l17.799,69.416l39.756,65.107l-1.38,-51.534Z" style="fill:#737fb5;fill-rule:nonzero;"/><path d="M235.408,126.377l-3.245,-60.102l4.906,-57.572l48.554,6.249l-19.261,55.606l-30.954,55.819Z" style="fill:#43477b;fill-rule:nonzero;"/><path d="M131.193,110.516l104.215,15.861l-17.854,-52.472l-24.331,-39.654l-32.473,32.337l-29.557,43.928Z" style="fill:#5662a0;fill-rule:nonzero;"/><path d="M131.193,110.516l32.893,-50.716l11.111,-54.184l-67.352,3.133l-0.002,38.102l23.35,63.665Z" style="fill:#b099b3;fill-rule:nonzero;"/><path d="M131.193,110.516l-23.729,-47.119l-33.126,-34.085l-2.206,58.691l17.444,51.953l41.617,-29.44Z" style="fill:#5c4f75;fill-rule:nonzero;"/><path d="M0,28.795l74.338,0.517l-33.253,21.6l-28.711,12.898l-12.374,-35.015Z" style="fill:#8c7aa1;fill-rule:nonzero;"/><path d="M7.833,124.43l42.895,-47.374l23.61,-47.744l-61.968,34.498l-4.537,60.62Z" style="fill:#7f658a;fill-rule:nonzero;"/><path d="M235.408,126.377l22.232,21.951l17.166,-67.309l10.817,-66.067l-50.215,111.425Z" style="fill:#5662a0;fill-rule:nonzero;"/><path d="M131.193,110.516l-56.855,-81.204l33.507,-20.563l23.348,101.767Z" style="fill:#7f658a;fill-rule:nonzero;"/><path d="M341.798,97.941l32.4,-88.23l25.177,128.483l-57.577,-40.253Z" style="fill:#7f658a;fill-rule:nonzero;"/><path d="M131.193,110.516l44.004,-104.9l18.026,28.635l-62.03,76.265Z" style="fill:#43477b;fill-rule:nonzero;"/><path d="M341.798,97.941l-56.175,-82.989l11.662,-14.94l44.513,97.929Z" style="fill:#43477b;fill-rule:nonzero;"/><path d="M7.833,124.43l66.505,-95.118l16.852,122.365l-83.357,-27.247Z" style="fill:#b099b3;fill-rule:nonzero;"/><path d="M193.223,34.251l42.185,92.126l1.661,-117.674l-43.846,25.548Z" style="fill:#8799ce;fill-rule:nonzero;"/><path d="M253.707,160l31.916,-145.048l57.555,134.523l-89.471,10.525Z" style="fill:#8799ce;fill-rule:nonzero;"/><path d="M431.654,37.567l-0.255,100.627l32.024,3.428l8.238,-119.561l-40.007,15.506Z" style="fill:#5c4f75;fill-rule:nonzero;"/><path d="M431.654,65.994l31.769,75.628l-64.048,-3.428l32.279,-72.2Z" style="fill:#b099b3;fill-rule:nonzero;"/><path d="M370.953,97.047l0,-51.712l-11.259,-0l0,61.165l33.318,0l-0,-9.453l-22.059,0Z" style="fill:#fff;fill-rule:nonzero;"/><path d="M157.089,97.047l0,-51.712l-11.252,-0l0,61.165l33.317,0l0,-9.453l-22.065,0Z" style="fill:#fff;fill-rule:nonzero;"/><path d="M102.03,96.915c-10.228,0 -18.51,-9.402 -18.51,-21c-0,-11.595 8.282,-21 18.51,-21c10.223,0 18.506,9.405 18.506,21c0,11.598 -8.283,21 -18.506,21Zm-0,-51.585c-16.054,0 -29.065,13.696 -29.065,30.585c-0,16.891 13.011,30.585 29.065,30.585c16.051,0 29.06,-13.694 29.06,-30.585c-0,-16.889 -13.009,-30.585 -29.06,-30.585Z" style="fill:#fff;fill-rule:nonzero;"/><path d="M42.518,45.449l-21.324,-0l0,10.73l21.324,0c4.63,0 10.243,2.531 10.243,9.681c0,7.146 -5.613,9.675 -10.243,9.675l-21.324,0l0,29.787l10.679,-15.276l-0,-3.784l10.645,0c11.663,0 19.562,-9.149 19.562,-20.402c0,-11.252 -7.899,-20.411 -19.562,-20.411Z" style="fill:#fff;fill-rule:nonzero;"/><path d="M198.297,45.33l-11.658,0l17.397,37.252l-0,23.918l11.138,0l-0,-24.311l-16.877,-36.859Z" style="fill:#fff;fill-rule:nonzero;"/><path d="M328.006,45.335l0,39.086c0,4.568 -0.69,12.345 -11.484,12.345c-10.791,-0 -11.483,-7.777 -11.483,-12.345l0,-39.086l-10.466,-0l-0,39.543c-0,9.644 5.865,21.622 21.949,21.622c16.081,0 21.947,-11.978 21.947,-21.622l-0,-39.543l-10.463,-0Z" style="fill:#fff;fill-rule:nonzero;"/><path d="M431.654,42.944l-28.339,63.556l10.385,0l17.954,-40.506l17.08,40.506l11.257,0l-28.337,-63.556Z" style="fill:#fff;fill-rule:nonzero;"/><path d="M510.183,106.5l-14.481,-22.556c6.293,-3.408 10.152,-10.228 10.152,-18.084c0,-11.252 -7.895,-20.411 -19.563,-20.411l-16.24,-0l-0.741,10.73l16.981,0c4.641,0 10.251,2.531 10.251,9.681c-0,7.146 -5.61,9.675 -10.251,9.675l-18.315,0l-0.738,10.727l18.339,0l12.846,20.238l11.76,0Z" style="fill:#fff;fill-rule:nonzero;"/><path d="M265.527,106.284l2.285,-10.391c-1.789,0.662 -3.696,1.022 -5.677,1.022c-10.188,0 -18.452,-9.402 -18.452,-21c-0,-11.595 8.264,-21 18.452,-21c5.213,0 9.915,2.488 13.275,6.456l2.448,-11.136c-4.527,-3.098 -9.923,-4.905 -15.723,-4.905c-15.997,0 -28.969,13.696 -28.969,30.585c0,16.891 12.972,30.585 28.969,30.585c1.148,0 2.28,-0.08 3.392,-0.216Z" style="fill:#fff;fill-rule:nonzero;"/></g></svg>
