{
    "asset" : {
        "generator" : "Khronos glTF Blender I/O v1.4.40",
        "version" : "2.0"
    },
    "scene" : 0,
    "scenes" : [
        {
            "name" : "Scene",
            "nodes" : [
                0
            ]
        },
        {
            "name" : "Scene.001"
        }
    ],
    "nodes" : [
        {
            "mesh" : 0,
            "name" : "key_growAnim",
            "rotation" : [
                0.7071068286895752,
                0,
                0,
                0.7071067094802856
            ],
            "scale" : [
                0.01249999925494194,
                0.01249999925494194,
                0.01249999925494194
            ],
            "translation" : [
                0.24317044019699097,
                -0.004663798958063126,
                -0.42624759674072266
            ]
        }
    ],
    "animations" : [
        {
            "channels" : [
                {
                    "sampler" : 0,
                    "target" : {
                        "node" : 0,
                        "path" : "translation"
                    }
                },
                {
                    "sampler" : 1,
                    "target" : {
                        "node" : 0,
                        "path" : "rotation"
                    }
                },
                {
                    "sampler" : 2,
                    "target" : {
                        "node" : 0,
                        "path" : "scale"
                    }
                }
            ],
            "name" : "key.001|Take 001|BaseLayer",
            "samplers" : [
                {
                    "input" : 4,
                    "interpolation" : "LINEAR",
                    "output" : 5
                },
                {
                    "input" : 4,
                    "interpolation" : "LINEAR",
                    "output" : 6
                },
                {
                    "input" : 4,
                    "interpolation" : "LINEAR",
                    "output" : 7
                }
            ]
        }
    ],
    "materials" : [
        {
            "doubleSided" : true,
            "name" : "key_blinn.001",
            "pbrMetallicRoughness" : {
                "baseColorFactor" : [
                    0.6290000081062317,
                    0.6290000081062317,
                    0.1452990025281906,
                    1
                ],
                "metallicFactor" : 0.5,
                "roughnessFactor" : 0.7487671971321106
            }
        }
    ],
    "meshes" : [
        {
            "name" : "Mesh.137",
            "primitives" : [
                {
                    "attributes" : {
                        "POSITION" : 0,
                        "NORMAL" : 1,
                        "TEXCOORD_0" : 2
                    },
                    "indices" : 3,
                    "material" : 0
                }
            ]
        }
    ],
    "accessors" : [
        {
            "bufferView" : 0,
            "componentType" : 5126,
            "count" : 640,
            "max" : [
                -87.93767547607422,
                186.52561950683594,
                -1.8654484748840332
            ],
            "min" : [
                -107.24964141845703,
                158.12289428710938,
                -2.6957836151123047
            ],
            "type" : "VEC3"
        },
        {
            "bufferView" : 1,
            "componentType" : 5126,
            "count" : 640,
            "type" : "VEC3"
        },
        {
            "bufferView" : 2,
            "componentType" : 5126,
            "count" : 640,
            "type" : "VEC2"
        },
        {
            "bufferView" : 3,
            "componentType" : 5123,
            "count" : 1620,
            "type" : "SCALAR"
        },
        {
            "bufferView" : 4,
            "componentType" : 5126,
            "count" : 11,
            "max" : [
                0.5
            ],
            "min" : [
                0.08333333333333333
            ],
            "type" : "SCALAR"
        },
        {
            "bufferView" : 5,
            "componentType" : 5126,
            "count" : 11,
            "type" : "VEC3"
        },
        {
            "bufferView" : 6,
            "componentType" : 5126,
            "count" : 11,
            "type" : "VEC4"
        },
        {
            "bufferView" : 7,
            "componentType" : 5126,
            "count" : 11,
            "type" : "VEC3"
        }
    ],
    "bufferViews" : [
        {
            "buffer" : 0,
            "byteLength" : 7680,
            "byteOffset" : 0
        },
        {
            "buffer" : 0,
            "byteLength" : 7680,
            "byteOffset" : 7680
        },
        {
            "buffer" : 0,
            "byteLength" : 5120,
            "byteOffset" : 15360
        },
        {
            "buffer" : 0,
            "byteLength" : 3240,
            "byteOffset" : 20480
        },
        {
            "buffer" : 0,
            "byteLength" : 44,
            "byteOffset" : 23720
        },
        {
            "buffer" : 0,
            "byteLength" : 132,
            "byteOffset" : 23764
        },
        {
            "buffer" : 0,
            "byteLength" : 176,
            "byteOffset" : 23896
        },
        {
            "buffer" : 0,
            "byteLength" : 132,
            "byteOffset" : 24072
        }
    ],
    "buffers" : [
        {
            "byteLength" : 24204,
            "uri" : "data:application/octet-stream;base64,"
        }
    ]
}
