{
    "asset" : {
        "generator" : "Khronos glTF Blender I/O v1.4.40",
        "version" : "2.0"
    },
    "scene" : 0,
    "scenes" : [
        {
            "name" : "Scene",
            "nodes" : [
                0
            ]
        },
        {
            "name" : "Scene.001"
        }
    ],
    "nodes" : [
        {
            "mesh" : 0,
            "name" : "DrawerLock_anim",
            "rotation" : [
                0.7071068286895752,
                0,
                0,
                0.7071067094802856
            ],
            "scale" : [
                0.009999999776482582,
                0.009999999776482582,
                0.009999999776482582
            ]
        }
    ],
    "animations" : [
        {
            "channels" : [
                {
                    "sampler" : 0,
                    "target" : {
                        "node" : 0,
                        "path" : "translation"
                    }
                },
                {
                    "sampler" : 1,
                    "target" : {
                        "node" : 0,
                        "path" : "rotation"
                    }
                },
                {
                    "sampler" : 2,
                    "target" : {
                        "node" : 0,
                        "path" : "scale"
                    }
                }
            ],
            "name" : "DrawerLock_anim|Take 001|BaseLayer",
            "samplers" : [
                {
                    "input" : 15,
                    "interpolation" : "LINEAR",
                    "output" : 16
                },
                {
                    "input" : 15,
                    "interpolation" : "LINEAR",
                    "output" : 17
                },
                {
                    "input" : 15,
                    "interpolation" : "LINEAR",
                    "output" : 18
                }
            ]
        }
    ],
    "materials" : [
        {
            "doubleSided" : true,
            "name" : "keyLock_blinn",
            "pbrMetallicRoughness" : {
                "baseColorFactor" : [
                    0.5,
                    0.5,
                    0.5,
                    1
                ],
                "metallicFactor" : 0.5,
                "roughnessFactor" : 0.7487671971321106
            }
        },
        {
            "doubleSided" : true,
            "name" : "metal.002",
            "pbrMetallicRoughness" : {
                "baseColorFactor" : [
                    0.5399895906448364,
                    0.5399895906448364,
                    0.5399895906448364,
                    1
                ],
                "roughnessFactor" : 0.5706806182861328
            }
        },
        {
            "doubleSided" : true,
            "name" : "wood.002",
            "pbrMetallicRoughness" : {
                "baseColorFactor" : [
                    0.5851565003395081,
                    0.2934887707233429,
                    0.13415376842021942,
                    1
                ],
                "metallicFactor" : 0,
                "roughnessFactor" : 0.5
            }
        }
    ],
    "meshes" : [
        {
            "name" : "Mesh.136",
            "primitives" : [
                {
                    "attributes" : {
                        "POSITION" : 0,
                        "NORMAL" : 1,
                        "TEXCOORD_0" : 2,
                        "TEXCOORD_1" : 3
                    },
                    "indices" : 4,
                    "material" : 0
                },
                {
                    "attributes" : {
                        "POSITION" : 5,
                        "NORMAL" : 6,
                        "TEXCOORD_0" : 7,
                        "TEXCOORD_1" : 8
                    },
                    "indices" : 9,
                    "material" : 1
                },
                {
                    "attributes" : {
                        "POSITION" : 10,
                        "NORMAL" : 11,
                        "TEXCOORD_0" : 12,
                        "TEXCOORD_1" : 13
                    },
                    "indices" : 14,
                    "material" : 2
                }
            ]
        }
    ],
    "accessors" : [
        {
            "bufferView" : 0,
            "componentType" : 5126,
            "count" : 42,
            "max" : [
                -205.9652557373047,
                262.01715087890625,
                131.85659790039062
            ],
            "min" : [
                -210.6346893310547,
                248.45184326171875,
                118.62344360351562
            ],
            "type" : "VEC3"
        },
        {
            "bufferView" : 1,
            "componentType" : 5126,
            "count" : 42,
            "type" : "VEC3"
        },
        {
            "bufferView" : 2,
            "componentType" : 5126,
            "count" : 42,
            "type" : "VEC2"
        },
        {
            "bufferView" : 3,
            "componentType" : 5126,
            "count" : 42,
            "type" : "VEC2"
        },
        {
            "bufferView" : 4,
            "componentType" : 5123,
            "count" : 72,
            "type" : "SCALAR"
        },
        {
            "bufferView" : 5,
            "componentType" : 5126,
            "count" : 80,
            "max" : [
                -205.91848754882812,
                321.3304443359375,
                114.01461791992188
            ],
            "min" : [
                -214.45639038085938,
                277.01873779296875,
                107.87152862548828
            ],
            "type" : "VEC3"
        },
        {
            "bufferView" : 6,
            "componentType" : 5126,
            "count" : 80,
            "type" : "VEC3"
        },
        {
            "bufferView" : 7,
            "componentType" : 5126,
            "count" : 80,
            "type" : "VEC2"
        },
        {
            "bufferView" : 8,
            "componentType" : 5126,
            "count" : 80,
            "type" : "VEC2"
        },
        {
            "bufferView" : 9,
            "componentType" : 5123,
            "count" : 156,
            "type" : "SCALAR"
        },
        {
            "bufferView" : 10,
            "componentType" : 5126,
            "count" : 88,
            "max" : [
                -102.86186218261719,
                356.3185119628906,
                136.0115203857422
            ],
            "min" : [
                -206.07838439941406,
                242.03065490722656,
                85.87462615966797
            ],
            "type" : "VEC3"
        },
        {
            "bufferView" : 11,
            "componentType" : 5126,
            "count" : 88,
            "type" : "VEC3"
        },
        {
            "bufferView" : 12,
            "componentType" : 5126,
            "count" : 88,
            "type" : "VEC2"
        },
        {
            "bufferView" : 13,
            "componentType" : 5126,
            "count" : 88,
            "type" : "VEC2"
        },
        {
            "bufferView" : 14,
            "componentType" : 5123,
            "count" : 132,
            "type" : "SCALAR"
        },
        {
            "bufferView" : 15,
            "componentType" : 5126,
            "count" : 36,
            "max" : [
                1.5416666666666667
            ],
            "min" : [
                0.08333333333333333
            ],
            "type" : "SCALAR"
        },
        {
            "bufferView" : 16,
            "componentType" : 5126,
            "count" : 36,
            "type" : "VEC3"
        },
        {
            "bufferView" : 17,
            "componentType" : 5126,
            "count" : 36,
            "type" : "VEC4"
        },
        {
            "bufferView" : 18,
            "componentType" : 5126,
            "count" : 36,
            "type" : "VEC3"
        }
    ],
    "bufferViews" : [
        {
            "buffer" : 0,
            "byteLength" : 504,
            "byteOffset" : 0
        },
        {
            "buffer" : 0,
            "byteLength" : 504,
            "byteOffset" : 504
        },
        {
            "buffer" : 0,
            "byteLength" : 336,
            "byteOffset" : 1008
        },
        {
            "buffer" : 0,
            "byteLength" : 336,
            "byteOffset" : 1344
        },
        {
            "buffer" : 0,
            "byteLength" : 144,
            "byteOffset" : 1680
        },
        {
            "buffer" : 0,
            "byteLength" : 960,
            "byteOffset" : 1824
        },
        {
            "buffer" : 0,
            "byteLength" : 960,
            "byteOffset" : 2784
        },
        {
            "buffer" : 0,
            "byteLength" : 640,
            "byteOffset" : 3744
        },
        {
            "buffer" : 0,
            "byteLength" : 640,
            "byteOffset" : 4384
        },
        {
            "buffer" : 0,
            "byteLength" : 312,
            "byteOffset" : 5024
        },
        {
            "buffer" : 0,
            "byteLength" : 1056,
            "byteOffset" : 5336
        },
        {
            "buffer" : 0,
            "byteLength" : 1056,
            "byteOffset" : 6392
        },
        {
            "buffer" : 0,
            "byteLength" : 704,
            "byteOffset" : 7448
        },
        {
            "buffer" : 0,
            "byteLength" : 704,
            "byteOffset" : 8152
        },
        {
            "buffer" : 0,
            "byteLength" : 264,
            "byteOffset" : 8856
        },
        {
            "buffer" : 0,
            "byteLength" : 144,
            "byteOffset" : 9120
        },
        {
            "buffer" : 0,
            "byteLength" : 432,
            "byteOffset" : 9264
        },
        {
            "buffer" : 0,
            "byteLength" : 576,
            "byteOffset" : 9696
        },
        {
            "buffer" : 0,
            "byteLength" : 432,
            "byteOffset" : 10272
        }
    ],
    "buffers" : [
        {
            "byteLength" : 10704,
            "uri" : "data:application/octet-stream;base64,"
        }
    ]
}
