{
    "asset" : {
        "generator" : "Khronos glTF Blender I/O v1.4.40",
        "version" : "2.0"
    },
    "scene" : 0,
    "scenes" : [
        {
            "name" : "Scene",
            "nodes" : [
                0
            ]
        }
    ],
    "nodes" : [
        {
            "mesh" : 0,
            "name" : "pot",
            "rotation" : [
                0.7071068286895752,
                0,
                0,
                0.7071067094802856
            ],
            "scale" : [
                0.009999999776482582,
                0.009999999776482582,
                0.009999999776482582
            ]
        }
    ],
    "animations" : [
        {
            "channels" : [
                {
                    "sampler" : 0,
                    "target" : {
                        "node" : 0,
                        "path" : "translation"
                    }
                },
                {
                    "sampler" : 1,
                    "target" : {
                        "node" : 0,
                        "path" : "rotation"
                    }
                },
                {
                    "sampler" : 2,
                    "target" : {
                        "node" : 0,
                        "path" : "scale"
                    }
                }
            ],
            "name" : "pot|Take 001|BaseLayer",
            "samplers" : [
                {
                    "input" : 16,
                    "interpolation" : "LINEAR",
                    "output" : 17
                },
                {
                    "input" : 16,
                    "interpolation" : "LINEAR",
                    "output" : 18
                },
                {
                    "input" : 16,
                    "interpolation" : "LINEAR",
                    "output" : 19
                }
            ]
        }
    ],
    "materials" : [
        {
            "doubleSided" : true,
            "name" : "ceramique.003",
            "pbrMetallicRoughness" : {
                "baseColorFactor" : [
                    0.4445780813694,
                    0.07838159799575806,
                    0.03481590747833252,
                    1
                ],
                "metallicFactor" : 0.395455002784729,
                "roughnessFactor" : 0.858578622341156
            }
        },
        {
            "doubleSided" : true,
            "name" : "dirt.003",
            "pbrMetallicRoughness" : {
                "baseColorFactor" : [
                    0.08514045178890228,
                    0.02273344248533249,
                    0.007089417893439531,
                    1
                ],
                "metallicFactor" : 0,
                "roughnessFactor" : 0.858578622341156
            }
        },
        {
            "doubleSided" : true,
            "name" : "bark.003",
            "pbrMetallicRoughness" : {
                "baseColorFactor" : [
                    0.28314879536628723,
                    0.16826944053173065,
                    0.06847818195819855,
                    1
                ],
                "metallicFactor" : 0,
                "roughnessFactor" : 0.858578622341156
            }
        },
        {
            "doubleSided" : true,
            "name" : "leaf.003",
            "pbrMetallicRoughness" : {
                "baseColorFactor" : [
                    0,
                    1,
                    0.09398097544908524,
                    1
                ],
                "metallicFactor" : 0.4000000059604645,
                "roughnessFactor" : 0.6318181753158569
            }
        }
    ],
    "meshes" : [
        {
            "name" : "Mesh.154",
            "primitives" : [
                {
                    "attributes" : {
                        "POSITION" : 0,
                        "NORMAL" : 1,
                        "TEXCOORD_0" : 2
                    },
                    "indices" : 3,
                    "material" : 0
                },
                {
                    "attributes" : {
                        "POSITION" : 4,
                        "NORMAL" : 5,
                        "TEXCOORD_0" : 6
                    },
                    "indices" : 7,
                    "material" : 1
                },
                {
                    "attributes" : {
                        "POSITION" : 8,
                        "NORMAL" : 9,
                        "TEXCOORD_0" : 10
                    },
                    "indices" : 11,
                    "material" : 2
                },
                {
                    "attributes" : {
                        "POSITION" : 12,
                        "NORMAL" : 13,
                        "TEXCOORD_0" : 14
                    },
                    "indices" : 15,
                    "material" : 3
                }
            ]
        }
    ],
    "accessors" : [
        {
            "bufferView" : 0,
            "componentType" : 5126,
            "count" : 162,
            "max" : [
                199.23150634765625,
                149.6765899658203,
                -112.3759765625
            ],
            "min" : [
                175.65435791015625,
                126.11205291748047,
                -136.96768188476562
            ],
            "type" : "VEC3"
        },
        {
            "bufferView" : 1,
            "componentType" : 5126,
            "count" : 162,
            "type" : "VEC3"
        },
        {
            "bufferView" : 2,
            "componentType" : 5126,
            "count" : 162,
            "type" : "VEC2"
        },
        {
            "bufferView" : 3,
            "componentType" : 5123,
            "count" : 330,
            "type" : "SCALAR"
        },
        {
            "bufferView" : 4,
            "componentType" : 5126,
            "count" : 65,
            "max" : [
                196.9265594482422,
                147.65908813476562,
                -131.56472778320312
            ],
            "min" : [
                177.6995391845703,
                128.4390869140625,
                -133.09579467773438
            ],
            "type" : "VEC3"
        },
        {
            "bufferView" : 5,
            "componentType" : 5126,
            "count" : 65,
            "type" : "VEC3"
        },
        {
            "bufferView" : 6,
            "componentType" : 5126,
            "count" : 65,
            "type" : "VEC2"
        },
        {
            "bufferView" : 7,
            "componentType" : 5123,
            "count" : 288,
            "type" : "SCALAR"
        },
        {
            "bufferView" : 8,
            "componentType" : 5126,
            "count" : 432,
            "max" : [
                191.854248046875,
                148.34996032714844,
                -128.81671142578125
            ],
            "min" : [
                179.2164306640625,
                134.99293518066406,
                -174.53439331054688
            ],
            "type" : "VEC3"
        },
        {
            "bufferView" : 9,
            "componentType" : 5126,
            "count" : 432,
            "type" : "VEC3"
        },
        {
            "bufferView" : 10,
            "componentType" : 5126,
            "count" : 432,
            "type" : "VEC2"
        },
        {
            "bufferView" : 11,
            "componentType" : 5123,
            "count" : 684,
            "type" : "SCALAR"
        },
        {
            "bufferView" : 12,
            "componentType" : 5126,
            "count" : 540,
            "max" : [
                218.81629943847656,
                174.8685760498047,
                -147.99049377441406
            ],
            "min" : [
                154.4108123779297,
                110.23700714111328,
                -181.0252685546875
            ],
            "type" : "VEC3"
        },
        {
            "bufferView" : 13,
            "componentType" : 5126,
            "count" : 540,
            "type" : "VEC3"
        },
        {
            "bufferView" : 14,
            "componentType" : 5126,
            "count" : 540,
            "type" : "VEC2"
        },
        {
            "bufferView" : 15,
            "componentType" : 5123,
            "count" : 810,
            "type" : "SCALAR"
        },
        {
            "bufferView" : 16,
            "componentType" : 5126,
            "count" : 50,
            "max" : [
                2.125
            ],
            "min" : [
                0.08333333333333333
            ],
            "type" : "SCALAR"
        },
        {
            "bufferView" : 17,
            "componentType" : 5126,
            "count" : 50,
            "type" : "VEC3"
        },
        {
            "bufferView" : 18,
            "componentType" : 5126,
            "count" : 50,
            "type" : "VEC4"
        },
        {
            "bufferView" : 19,
            "componentType" : 5126,
            "count" : 50,
            "type" : "VEC3"
        }
    ],
    "bufferViews" : [
        {
            "buffer" : 0,
            "byteLength" : 1944,
            "byteOffset" : 0
        },
        {
            "buffer" : 0,
            "byteLength" : 1944,
            "byteOffset" : 1944
        },
        {
            "buffer" : 0,
            "byteLength" : 1296,
            "byteOffset" : 3888
        },
        {
            "buffer" : 0,
            "byteLength" : 660,
            "byteOffset" : 5184
        },
        {
            "buffer" : 0,
            "byteLength" : 780,
            "byteOffset" : 5844
        },
        {
            "buffer" : 0,
            "byteLength" : 780,
            "byteOffset" : 6624
        },
        {
            "buffer" : 0,
            "byteLength" : 520,
            "byteOffset" : 7404
        },
        {
            "buffer" : 0,
            "byteLength" : 576,
            "byteOffset" : 7924
        },
        {
            "buffer" : 0,
            "byteLength" : 5184,
            "byteOffset" : 8500
        },
        {
            "buffer" : 0,
            "byteLength" : 5184,
            "byteOffset" : 13684
        },
        {
            "buffer" : 0,
            "byteLength" : 3456,
            "byteOffset" : 18868
        },
        {
            "buffer" : 0,
            "byteLength" : 1368,
            "byteOffset" : 22324
        },
        {
            "buffer" : 0,
            "byteLength" : 6480,
            "byteOffset" : 23692
        },
        {
            "buffer" : 0,
            "byteLength" : 6480,
            "byteOffset" : 30172
        },
        {
            "buffer" : 0,
            "byteLength" : 4320,
            "byteOffset" : 36652
        },
        {
            "buffer" : 0,
            "byteLength" : 1620,
            "byteOffset" : 40972
        },
        {
            "buffer" : 0,
            "byteLength" : 200,
            "byteOffset" : 42592
        },
        {
            "buffer" : 0,
            "byteLength" : 600,
            "byteOffset" : 42792
        },
        {
            "buffer" : 0,
            "byteLength" : 800,
            "byteOffset" : 43392
        },
        {
            "buffer" : 0,
            "byteLength" : 600,
            "byteOffset" : 44192
        }
    ],
    "buffers" : [
        {
            "byteLength" : 44792,
            "uri" : "data:application/octet-stream;base64,"
        }
    ]
}
