<svg xmlns="http://www.w3.org/2000/svg" xmlns:xlink="http://www.w3.org/1999/xlink" version="1.1" id="Layer_1" x="0px" y="0px" viewBox="0 0 512 512" style="enable-background:new 0 0 512 512;" xml:space="preserve" width="512" height="512">
<g>
	<g>
		<path style="fill:#61729B;" d="M502,296c0,11.05-8.95,20-20,20c-26.559,0-99.433,0-126,0l-60-60l60-60c26.588,0,99.504,0,126,0    c11.05,0,20,8.95,20,20C502,225.679,502,286.257,502,296z"/>
		<path style="fill:#61729B;" d="M316,482c0,11.05-8.95,20-20,20c-9.679,0-70.257,0-80,0c-11.05,0-20-8.95-20-20    c0-20.59,0-96.011,0-126l60-60l60,60C316,386.111,316,461.328,316,482z"/>
		<path style="fill:#61729B;" d="M316,156l-60,60l-60-60c0-30.111,0-105.328,0-126c0-11.05,8.95-20,20-20c9.679,0,70.257,0,80,0    c11.05,0,20,8.95,20,20C316,50.59,316,126.011,316,156z"/>
		<path style="fill:#61729B;" d="M216,256l-60,60c-26.453,0-102.131,0-126,0c-11.05,0-20-8.95-20-20c0-9.679,0-70.257,0-80    c0-11.05,8.95-20,20-20c23.87,0,99.547,0,126,0L216,256z"/>
	</g>
	<g>
		<path style="fill:#020202;" d="M276,146c5.52,0,10-4.48,10-10s-4.48-10-10-10s-10,4.48-10,10S270.48,146,276,146z"/>
		<path style="fill:#020202;" d="M248.929,223.071C250.882,225.023,253.44,226,256,226s5.118-0.977,7.071-2.929l60-60    c1.875-1.876,2.929-4.419,2.929-7.071V30c0-16.542-13.458-30-30-30h-80c-16.542,0-30,13.458-30,30v126    c0,2.652,1.054,5.195,2.929,7.071L248.929,223.071z M206,30c0-5.514,4.486-10,10-10h80c5.514,0,10,4.486,10,10v121.857l-50,50    l-50-50V30z"/>
		<path style="fill:#020202;" d="M248.929,288.929l-60,60C187.054,350.805,186,353.348,186,356v126c0,16.542,13.458,30,30,30h80    c16.542,0,30-13.458,30-30V356c0-2.652-1.054-5.195-2.929-7.071l-60-60C259.165,285.024,252.835,285.024,248.929,288.929z     M306,360.143V482c0,5.514-4.486,10-10,10h-80c-5.514,0-10-4.486-10-10V360.143l50-50L306,360.143z"/>
		<path style="fill:#020202;" d="M30,326h126c2.652,0,5.195-1.054,7.071-2.929l60-60c3.905-3.905,3.905-10.237,0-14.143l-60-60    C161.195,187.054,158.652,186,156,186H30c-16.542,0-30,13.458-30,30v80C0,312.542,13.458,326,30,326z M20,216    c0-5.514,4.486-10,10-10h121.857l50,50l-50,50H30c-5.514,0-10-4.486-10-10V216z"/>
		<path style="fill:#020202;" d="M482,186H356c-2.652,0-5.195,1.054-7.071,2.929l-60,60c-3.905,3.905-3.905,10.237,0,14.143l60,60    c1.876,1.875,4.419,2.929,7.071,2.929h126c16.542,0,30-13.458,30-30v-80C512,199.458,498.542,186,482,186z M492,296    c0,5.514-4.486,10-10,10H360.143l-50-50l50-50H482c5.514,0,10,4.486,10,10V296z"/>
		<path style="fill:#020202;" d="M276,106c5.522,0,10-4.478,10-10V50c0-5.522-4.478-10-10-10s-10,4.478-10,10v46    C266,101.522,270.478,106,276,106z"/>
	</g>
</g>
</svg>
