<svg version="1.1" id="Capa_1" xmlns="http://www.w3.org/2000/svg" xmlns:xlink="http://www.w3.org/1999/xlink" x="0px" y="0px"
	 viewBox="0 0 511.999 511.999" style="enable-background:new 0 0 511.999 511.999;" xml:space="preserve">
<path style="fill:#1d83d4;" d="M495.01,229.989L495.01,229.989c14.354-24.862,5.836-56.653-19.026-71.007l0,0
	c-16.083-9.285-25.99-26.445-25.99-45.016l0,0c0-28.708-23.272-51.98-51.98-51.98l0,0c-18.571,0-35.731-9.907-45.016-25.99l0,0
	c-14.354-24.862-46.145-33.38-71.007-19.026l0,0c-16.083,9.285-35.898,9.285-51.98,0l0,0c-24.862-14.354-56.652-5.836-71.007,19.026
	l0,0c-9.285,16.083-26.445,25.99-45.016,25.99l0,0c-28.708,0-51.98,23.272-51.98,51.98l0,0c0,18.571-9.907,35.731-25.99,45.016l0,0
	c-24.862,14.354-33.38,46.145-19.026,71.006l0,0c9.285,16.083,9.285,35.898,0,51.98l0,0c-14.354,24.862-5.836,56.653,19.026,71.007
	l0,0c16.083,9.285,25.99,26.445,25.99,45.016l0,0c0,28.708,23.272,51.98,51.98,51.98l0,0c18.571,0,35.731,9.907,45.016,25.99l0,0
	c14.354,24.862,46.145,33.38,71.007,19.026l0,0c16.083-9.285,35.898-9.285,51.98,0l0,0c24.862,14.354,56.653,5.836,71.007-19.026
	l0,0c9.285-16.083,26.445-25.99,45.016-25.99l0,0c28.708,0,51.98-23.272,51.98-51.98l0,0c0-18.571,9.907-35.731,25.99-45.016l0,0
	c24.862-14.354,33.38-46.145,19.026-71.007l0,0C485.725,265.887,485.725,246.072,495.01,229.989z"/>
<circle style="fill:#EDF2FA;" cx="256.003" cy="255.981" r="191.987"/>
<path d="M256.001,457.965c-111.375,0-201.986-90.611-201.986-201.986S144.625,53.993,256.001,53.993s201.986,90.611,201.986,201.986
	c0,39.213-11.251,77.241-32.536,109.974c-3.011,4.63-9.205,5.944-13.834,2.933c-4.63-3.011-5.943-9.204-2.933-13.834
	c19.171-29.48,29.304-63.74,29.304-99.072c0-100.348-81.639-181.988-181.988-181.988S74.013,155.631,74.013,255.979
	s81.639,181.988,181.988,181.988c33.525,0,66.284-9.187,94.736-26.57c4.717-2.879,10.868-1.393,13.746,3.319
	c2.88,4.713,1.394,10.867-3.319,13.746C329.571,447.763,293.206,457.965,256.001,457.965z"/>
<path d="M390.43,403.048c-2.59,0-5.178-1-7.135-2.993c-3.87-3.94-3.813-10.271,0.128-14.141l0.325-0.32
	c3.941-3.87,10.271-3.811,14.141,0.128c3.87,3.94,3.813,10.271-0.128,14.141l-0.325,0.32
	C395.489,402.094,392.958,403.048,390.43,403.048z"/>
<path d="M204.12,511.98c-5.384,0.001-10.802-0.707-16.142-2.139c-15.992-4.284-29.357-14.54-37.635-28.878
	c-7.475-12.947-21.407-20.991-36.357-20.991c-34.176,0-61.979-27.804-61.979-61.979c0-14.95-8.043-28.882-20.991-36.357
	c-14.338-8.277-24.594-21.644-28.878-37.635c-4.285-15.991-2.086-32.694,6.192-47.031c7.475-12.947,7.475-29.034,0-41.981
	c-8.277-14.337-10.477-31.04-6.192-47.031c4.284-15.992,14.54-29.357,28.878-37.634c12.947-7.475,20.991-21.407,20.991-36.357
	c0-34.176,27.804-61.98,61.979-61.98c14.95,0,28.882-8.042,36.357-20.991C167.432,1.4,205.412-8.777,235.009,8.311
	c12.948,7.475,29.033,7.475,41.981,0c29.598-17.088,67.578-6.911,84.666,22.686c7.475,12.947,21.407,20.991,36.357,20.991
	c34.176,0,61.979,27.804,61.979,61.98c0,14.951,8.043,28.882,20.991,36.358c14.338,8.277,24.594,21.644,28.878,37.634
	c4.285,15.991,2.086,32.694-6.192,47.031c-7.476,12.947-7.476,29.034,0,41.981c8.277,14.337,10.477,31.04,6.192,47.031
	c-4.284,15.992-14.54,29.357-28.878,37.635c-12.947,7.475-20.991,21.407-20.991,36.357c0,34.176-27.804,61.979-61.979,61.979
	c-14.95,0-28.882,8.043-36.357,20.991c-8.277,14.338-21.644,24.594-37.635,28.878c-15.99,4.284-32.694,2.086-47.031-6.192
	c-12.948-7.476-29.035-7.476-41.981,0C225.461,509.164,214.859,511.98,204.12,511.98z M204.091,20.012
	c-14.52,0-28.66,7.528-36.429,20.982c-11.036,19.116-31.603,30.99-53.676,30.99c-23.147,0-41.98,18.833-41.98,41.981
	c0,22.072-11.875,42.64-30.99,53.676c-9.711,5.607-16.658,14.66-19.561,25.491c-2.902,10.831-1.413,22.144,4.194,31.856
	c11.036,19.116,11.036,42.865,0,61.98c-5.607,9.711-7.097,21.025-4.194,31.856c2.903,10.831,9.849,19.885,19.561,25.491
	c19.115,11.036,30.99,31.603,30.99,53.676c0,23.147,18.833,41.98,41.98,41.98c22.072,0,42.64,11.875,53.676,30.99
	c5.607,9.711,14.66,16.658,25.491,19.561c10.83,2.905,22.144,1.414,31.856-4.194c19.116-11.036,42.864-11.036,61.98,0
	c9.711,5.608,21.026,7.098,31.856,4.194c10.831-2.902,19.885-9.849,25.491-19.561c11.036-19.115,31.603-30.99,53.676-30.99
	c23.147,0,41.98-18.833,41.98-41.98c0-22.072,11.875-42.64,30.99-53.676c9.711-5.607,16.658-14.66,19.561-25.491
	c2.903-10.831,1.413-22.145-4.194-31.856c-11.036-19.115-11.036-42.865,0-61.98l0,0c5.607-9.711,7.097-21.025,4.194-31.856
	c-2.902-10.832-9.849-19.885-19.561-25.491c-19.115-11.036-30.99-31.604-30.99-53.676c0-23.148-18.833-41.981-41.98-41.981
	c-22.071,0-42.64-11.874-53.676-30.99c-11.575-20.048-37.3-26.943-57.348-15.367c-19.116,11.036-42.864,11.036-61.98,0
	C218.416,21.822,211.208,20.012,204.091,20.012z"/>
<path style="fill:#12eb53;" d="M242.119,154.091c5.679-11.505,22.085-11.505,27.763,0l26.297,53.284l0.254,0.037l58.549,8.507
	c12.697,1.845,17.767,17.449,8.579,26.404l-36.723,35.796c-3.649,3.557-5.314,8.68-4.452,13.702l8.669,50.544
	c2.169,12.646-11.104,22.289-22.46,16.319l-45.391-23.863c-4.51-2.371-9.897-2.371-14.407,0l-45.391,23.863
	c-11.356,5.971-24.63-3.673-22.46-16.319l8.669-50.544c0.861-5.022-0.804-10.145-4.452-13.702l-36.722-35.796
	c-9.187-8.955-4.118-24.559,8.579-26.404l50.749-7.374c5.042-0.733,9.4-3.9,11.655-8.468L242.119,154.091z"/>
<path d="M315.824,370.489c-4.05,0-8.119-0.977-11.881-2.954l-45.392-23.863c-1.598-0.84-3.504-0.84-5.102,0l-45.392,23.863
	c-8.645,4.545-18.929,3.804-26.833-1.939c-7.902-5.743-11.787-15.291-10.136-24.92l8.668-50.545
	c0.306-1.778-0.284-3.593-1.576-4.853l-36.722-35.794c-6.996-6.82-9.466-16.828-6.447-26.119
	c3.019-9.291,10.899-15.937,20.568-17.341l50.75-7.374c1.785-0.26,3.328-1.38,4.126-2.999l22.695-45.987l0,0
	c4.324-8.76,13.079-14.203,22.849-14.203s18.525,5.443,22.849,14.203l23.97,48.571l53.6,7.788
	c9.669,1.405,17.551,8.049,20.569,17.341c3.02,9.291,0.549,19.3-6.447,26.119l-36.723,35.796c-1.292,1.259-1.882,3.073-1.576,4.852
	l8.668,50.545c1.651,9.629-2.233,19.178-10.136,24.92C326.309,368.841,321.083,370.489,315.824,370.489z M256.001,323.043
	c4.073,0,8.144,0.976,11.856,2.928l45.392,23.863c2.725,1.433,4.943,0.186,5.772-0.417c0.828-0.602,2.7-2.329,2.18-5.36
	l-8.668-50.545c-1.418-8.267,1.321-16.698,7.328-22.552l36.723-35.796c2.202-2.147,1.704-4.645,1.388-5.619
	c-0.316-0.974-1.382-3.288-4.426-3.73l-58.792-8.542c-3.261-0.47-6.081-2.517-7.539-5.472l-26.297-53.284
	c-1.36-2.758-3.891-3.056-4.915-3.056c-1.024,0-3.555,0.298-4.915,3.056l-22.695,45.986c-3.712,7.521-10.884,12.732-19.185,13.938
	l-50.75,7.374c-3.043,0.442-4.108,2.756-4.425,3.73c-0.316,0.975-0.814,3.472,1.388,5.619l36.722,35.795
	c6.007,5.855,8.745,14.286,7.327,22.553l-8.668,50.545c-0.521,3.031,1.352,4.759,2.18,5.36c0.83,0.603,3.051,1.85,5.772,0.417
	l45.392-23.863C247.855,324.019,251.928,323.043,256.001,323.043z"/>
<path d="M119.017,207.275c-1.315,0-2.653-0.261-3.938-0.813c-5.075-2.178-7.424-8.057-5.246-13.132
	c19.169-44.666,58.611-78.719,105.509-91.09c5.335-1.408,10.811,1.778,12.219,7.119c1.409,5.34-1.778,10.81-7.118,12.219
	c-40.992,10.813-75.472,40.585-92.232,79.64C126.585,205.006,122.895,207.275,119.017,207.275z"/>
<path d="M255.413,116.99c-5.511,0-9.984-4.46-9.998-9.974c-0.014-5.523,4.452-10.01,9.974-10.024l0.612-0.001
	c5.522,0,9.999,4.477,9.999,9.999c0,5.523-4.478,9.999-9.999,9.999l-0.562,0.001C255.43,116.99,255.422,116.99,255.413,116.99z"/>
</svg>
